<svg width="1440" height="1024" viewBox="0 0 1440 1024" fill="none" xmlns="http://www.w3.org/2000/svg">
<g filter="url(#filter0_d_2_2)">
<path d="M825 614.5L832.341 599.134M867 614.5L860 599.134M860 599.134L846.5 569.5L832.341 599.134M860 599.134H832.341" stroke="white" stroke-width="5"/>
<path d="M137 538H226V540.5L137 598V538Z" fill="#ADB5CE"/>
<path d="M93 428L226 347V540.5L93 571V428Z" fill="#ADB5CE"/>
<path d="M300.5 321L345.5 361V571L300.5 532.5V321Z" fill="#ADB5CE"/>
<path d="M245 278.5L290 318.5V528.5L245 490V278.5Z" fill="#ADB5CE"/>
<path d="M377 421.324L235 328V382.69L377 472V447.916V421.324Z" fill="white"/>
<path d="M377 487.324L235 394V448.69L377 538V513.916V487.324Z" fill="white"/>
<path d="M377 559.324L235 466V520.69L377 610V585.916V559.324Z" fill="white"/>
<path d="M73.5 487.5L215.5 394.5V449L73.5 538V514V487.5Z" fill="white"/>
<path d="M74 559L216 466V520.5L74 609.5V585.5V559Z" fill="white"/>
<path d="M74 421L216 328V382.5L74 471.5V447.5V421Z" fill="white"/>
<path d="M344 597L376 619.5L377 620H344V597Z" fill="#ADB5CE"/>
<path d="M78 619L107 599V619H78Z" fill="#ADB5CE"/>
<path d="M490.5 388.5H530.5L560 535H526.5L522 502.5L518.5 478.5L510.5 421L503 478.5H521L525.5 505H499L493 535H459L474 468.5L490.5 388.5Z" fill="white"/>
<path d="M680.969 410.822L682 405.822L683.5 399.822L686 394.822L690.5 390L696 387.5L700.969 386.822H752.469L759.469 389.322L764.969 394.822L767.969 399.822L769.969 405.822L770.969 410.822V436.5H739V416H711V505H739.108V482.5H725V454.5H770.969L771 516L768 522L763.5 526.5L759 529.5L754 532L748.312 533.322H739.469H741.562H740.5H732H739.108H739.469H712.969H693.244L690.5 531.5L688.5 529.5L685.5 526.5L683.5 523.5L682 520.5L680.969 518V468.822V410.822Z" fill="white"/>
<path d="M490.5 388.5H530.5L560 535H526.5L522 502.5L518.5 478.5L510.5 421L503 478.5H521L525.5 505H499L493 535H459L474 468.5L490.5 388.5Z" fill="white"/>
<path d="M571 388.5H642.5L649.5 391L655 396.5L658 401.5L660 407.5L661 412.5V451L660 456.5L657.5 461L654 464L649.5 466V469L652 470L656 473L659.5 476.5L661.5 481.5L662.5 535H629.5L629.139 486L628.639 484.5L627.639 483.5L626.139 482.5L625.139 482L623.497 481.5H600.5V454.5H625L627.5 452.5L629 450.5L630.5 447.5V416.5H603V481.5V535H571V470.5V388.5Z" fill="white"/>
<path d="M787.969 410.822L789 405.822L790.5 399.822L793 394.822L797.5 390L803 387.5L807.969 386.822H859.469L866.469 389.322L871.969 394.822L874.969 399.822L876.969 405.822L877.969 410.822V436.5H846V416H818V505H846.108V482.5L846 468.822V436.5L877.969 435L878 516L875 522L870.5 526.5L866 529.5L861 532L855.312 533.322H846.469H848.562H847.5H839H846.108H846.469H819.969H800.244L797.5 531.5L795.5 529.5L792.5 526.5L790.5 523.5L789 520.5L787.969 518V468.822V410.822Z" fill="white"/>
<path d="M897.5 386.822H941L966 478.5V386.822H997.5L996 533.322H953.5L941 484.5L930 442V533.322H897.5V468.822V386.822Z" fill="white"/>
<path d="M897.5 386.822H941L966 478.5V386.822H997.5L996 533.322H953.5L941 484.5L930 442V533.322H897.5V468.822V386.822Z" fill="white"/>
<path d="M1296.5 386.822H1336.5L1366 533.322H1332.5L1328 500.822L1324.5 476.822L1316.5 419.322L1309 476.822H1327L1331.5 503.322H1305L1299 533.322H1265L1280 466.822L1296.5 386.822Z" fill="white"/>
<path d="M1296.5 386.822H1336.5L1366 533.322H1332.5L1328 500.822L1324.5 476.822L1316.5 419.322L1309 476.822H1327L1331.5 503.322H1305L1299 533.322H1265L1280 466.822L1296.5 386.822Z" fill="white"/>
<path d="M488.5 573C485 570.5 480 568.5 475.5 569L473 569.5L470.5 570.5L468.5 571.5C467 572.5 464.774 573.921 464 576.5C462.5 581.5 464.5 586 466 587.5C468.5 590 471.5 591.5 476.5 592.5L483.5 593.5C485 594 489 595 489.5 600C489.5 608.5 486 609.833 484.5 611L483 612L482 612.5L480.5 613H472.127L470 612.5L468.5 612L466.5 611L464 609.5L461 607" stroke="white" stroke-width="5"/>
<path d="M505.5 568V591M505.5 614V591M505.5 591H537M537 568V614" stroke="white" stroke-width="5"/>
<path d="M584.5 569.5H557.5M557.5 569.5H555H554.5H557.5ZM554.5 612.5H557M584.5 612.5H557M557 612.5V591M557 572V591M557 591H582.5" stroke="white" stroke-width="5"/>
<path d="M627 569H600M600 569H597.5H597H600ZM597 612H599.5M627 612H599.5M599.5 612V590.5M599.5 571.5V590.5M599.5 590.5H625" stroke="white" stroke-width="5"/>
<path d="M1143.5 387H1183.5L1188.5 389L1192.5 392L1195.5 394.5L1198 397.5L1200 400L1201.5 403L1202.5 406V438.5H1172.2V416.5H1144V442.5L1145.5 445L1148 446.5H1167.5L1173 447.5L1178 449.5L1182.5 452L1186.5 455L1190.5 458L1194 461.5L1197 465.5L1199.5 470L1201.5 475.5L1202.5 482.5V518L1199 523L1195 527L1190 531L1185 533.5H1146H1128L1124.5 532L1121.5 529L1119 526.5L1116.5 523L1114 519.5L1112 515.5V484.5H1144.5V506.711H1172V481L1170.5 478L1169 476.5L1167.5 475.5L1165.5 474.5H1159.5H1148.5L1142 473.5L1138 472L1134 470.5L1129.5 467.5L1126.5 465L1124 462.5L1121 459.5L1118.5 457L1116.5 454L1114 450L1112.5 446.5V404.5L1115 399.5L1118.5 395L1125.5 390L1133 387H1143.5Z" fill="white"/>
<rect x="1221" y="388" width="32" height="146" fill="white"/>
<path d="M1019 389H1100V416H1049.5V449H1092V474L1049.5 474.5V506.5H1100V535H1019V389Z" fill="white"/>
<path d="M783 569H756M756 569H753.5H753H756ZM753 612H755.5M783 612H755.5M755.5 612V590.5M755.5 571.5V590.5M755.5 590.5H781" stroke="white" stroke-width="5"/>
<path d="M635 569.5H652M669 569.5H652M652 569.5V615" stroke="white" stroke-width="5"/>
<path d="M791 570H808M825 570H808M808 570V615.5" stroke="white" stroke-width="5"/>
<path d="M695.5 615V567" stroke="white" stroke-width="5"/>
<path d="M695 568.5L716 606L737.5 568.5" stroke="white" stroke-width="5"/>
<path d="M738 615V567" stroke="white" stroke-width="5"/>
<path d="M880 567L880 610.573L880 614" stroke="white" stroke-width="5"/>
<path d="M878 612H905" stroke="white" stroke-width="5"/>
<path d="M962 572H934V593.5M934 615V593.5M934 593.5H958.787" stroke="white" stroke-width="8"/>
<path d="M967 613L973.136 599.5M1006.5 613L1001.9 599.5M1001.9 599.5L991.5 569H987L973.136 599.5M1001.9 599.5H973.136" stroke="white" stroke-width="8"/>
<path d="M1177 614L1183.14 600.5M1216.5 614L1211.9 600.5M1211.9 600.5L1201.5 570H1197L1183.14 600.5M1211.9 600.5H1183.14" stroke="white" stroke-width="8"/>
<path d="M1221 571.5H1240.25M1259.5 571.5H1240.25M1240.25 571.5V615.5" stroke="white" stroke-width="8"/>
<path d="M1344 615V570.327H1345.97L1375.03 612.149H1377L1376.51 568.426V567" stroke="white" stroke-width="8"/>
<path d="M1344 609V616" stroke="white" stroke-width="8"/>
<path d="M1168 579V576.5L1166 574.5L1163.5 572L1161 571H1158H1150L1147 572L1144.5 573.5L1142 575L1139.5 578.5L1137.5 582L1136.5 585V600L1139 604L1141.5 606.5L1145.5 609L1148 610.5L1151 611.5H1159L1162 610.5L1165.5 609L1167.5 607.5L1168 605.5V604V602.5" stroke="white" stroke-width="8"/>
<path d="M1316 572H1301.5L1297 574M1297 574L1295 575.5L1293 577.5L1291 580L1289.5 582L1289 584.5V587.5V599.5L1290.5 602L1293 605.5L1296 607.5L1298.5 609.5L1301.5 610H1303.5H1314.5L1317.5 609L1320.5 607.5L1322.5 605.5L1324.5 603L1326 599.5L1327 598V585.5L1326 582L1324.5 579.5L1322 576.5L1319.5 574L1318.5 573L1317.5 572L1311.5 571H1301.5L1299.5 572L1297 574Z" stroke="white" stroke-width="8"/>
<path d="M1021.77 568L1022.21 609.966M1022.24 613L1022.21 609.966M1022.21 609.966H1042.51L1045.34 609.461L1047.23 608.955L1048.17 607.944L1050.06 605.416L1050.53 602.888L1051 598.843L1050.53 595.809L1049.11 594.292L1046.76 592.27L1044.4 590.753L1043.93 589.742M1043.93 589.742H1025.54M1043.93 589.742L1046.76 588.225L1047.7 587.213L1049.11 585.697L1050.06 583.169L1050.53 579.629L1050.06 575.584L1049.59 573.056L1048.17 571.034L1045.34 570.528L1042.51 570.022H1022.24H1018" stroke="white" stroke-width="8"/>
<path d="M1071 568.5V597.5M1071 614.5V597.5M1071 597.5H1088.5L1092.5 602.5L1100 612.5V614V614.5" stroke="white" stroke-width="8"/>
<path d="M1087.2 598L1089.55 597.5L1093.3 595.5L1095.18 593L1096.59 590L1097.53 587.5L1098 584V582L1097.06 579L1095.18 575.5L1092.83 574L1090.02 572H1073.58H1067" stroke="white" stroke-width="8"/>
<path d="M1118 614.5V568.5" stroke="white" stroke-width="8"/>
<path d="M1271 615V569" stroke="white" stroke-width="8"/>
<path d="M1022 567V614" stroke="white" stroke-width="8"/>
</g>
<defs>
<filter id="filter0_d_2_2" x="-4" y="0" width="1448" height="1032" filterUnits="userSpaceOnUse" color-interpolation-filters="sRGB">
<feFlood flood-opacity="0" result="BackgroundImageFix"/>
<feColorMatrix in="SourceAlpha" type="matrix" values="0 0 0 0 0 0 0 0 0 0 0 0 0 0 0 0 0 0 127 0" result="hardAlpha"/>
<feOffset dy="4"/>
<feGaussianBlur stdDeviation="2"/>
<feComposite in2="hardAlpha" operator="out"/>
<feColorMatrix type="matrix" values="0 0 0 0 0 0 0 0 0 0 0 0 0 0 0 0 0 0 0.25 0"/>
<feBlend mode="normal" in2="BackgroundImageFix" result="effect1_dropShadow_2_2"/>
<feBlend mode="normal" in="SourceGraphic" in2="effect1_dropShadow_2_2" result="shape"/>
</filter>
</defs>
</svg>
