<svg width="1440" height="532" viewBox="0 0 1440 532" fill="none" xmlns="http://www.w3.org/2000/svg">
<g clip-path="url(#clip0_3_48)" filter="url(#filter0_d_3_48)">
<path d="M819.5 410L826.841 394.634M861.5 410L854.5 394.634M854.5 394.634L841 365L826.841 394.634M854.5 394.634H826.841" stroke="white" stroke-width="5"/>
<path d="M131.5 333.5H220.5V336L131.5 393.5V333.5Z" fill="#ADB5CE"/>
<path d="M87.5 223.5L220.5 142.5V336L87.5 366.5V223.5Z" fill="#ADB5CE"/>
<path d="M295 116.5L340 156.5V366.5L295 328V116.5Z" fill="#ADB5CE"/>
<path d="M239.5 74L284.5 114V324L239.5 285.5V74Z" fill="#ADB5CE"/>
<path d="M371.5 216.824L229.5 123.5V178.19L371.5 267.5V243.416V216.824Z" fill="white"/>
<path d="M371.5 282.824L229.5 189.5V244.19L371.5 333.5V309.416V282.824Z" fill="white"/>
<path d="M371.5 354.824L229.5 261.5V316.19L371.5 405.5V381.416V354.824Z" fill="white"/>
<path d="M68 283L210 190V244.5L68 333.5V309.5V283Z" fill="white"/>
<path d="M68.5 354.5L210.5 261.5V316L68.5 405V381V354.5Z" fill="white"/>
<path d="M68.5 216.5L210.5 123.5V178L68.5 267V243V216.5Z" fill="white"/>
<path d="M338.5 392.5L370.5 415L371.5 415.5H338.5V392.5Z" fill="#ADB5CE"/>
<path d="M72.5 414.5L101.5 394.5V414.5H72.5Z" fill="#ADB5CE"/>
<path d="M485 184H525L554.5 330.5H521L516.5 298L513 274L505 216.5L497.5 274H515.5L520 300.5H493.5L487.5 330.5H453.5L468.5 264L485 184Z" fill="white"/>
<path d="M675.469 206.322L676.5 201.322L678 195.322L680.5 190.322L685 185.5L690.5 183L695.469 182.322H746.969L753.969 184.822L759.469 190.322L762.469 195.322L764.469 201.322L765.469 206.322V232H733.5V211.5H705.5V300.5H733.608V278H719.5V250H765.469L765.5 311.5L762.5 317.5L758 322L753.5 325L748.5 327.5L742.812 328.822H733.969H736.062H735H726.5H733.608H733.969H707.469H687.744L685 327L683 325L680 322L678 319L676.5 316L675.469 313.5V264.322V206.322Z" fill="white"/>
<path d="M485 184H525L554.5 330.5H521L516.5 298L513 274L505 216.5L497.5 274H515.5L520 300.5H493.5L487.5 330.5H453.5L468.5 264L485 184Z" fill="white"/>
<path d="M565.5 184H637L644 186.5L649.5 192L652.5 197L654.5 203L655.5 208V246.5L654.5 252L652 256.5L648.5 259.5L644 261.5V264.5L646.5 265.5L650.5 268.5L654 272L656 277L657 330.5H624L623.639 281.5L623.139 280L622.139 279L620.639 278L619.639 277.5L617.997 277H595V250H619.5L622 248L623.5 246L625 243V212H597.5V277V330.5H565.5V266V184Z" fill="white"/>
<path d="M782.469 206.322L783.5 201.322L785 195.322L787.5 190.322L792 185.5L797.5 183L802.469 182.322H853.969L860.969 184.822L866.469 190.322L869.469 195.322L871.469 201.322L872.469 206.322V232H840.5V211.5H812.5V300.5H840.608V278L840.5 264.322V232L872.469 230.5L872.5 311.5L869.5 317.5L865 322L860.5 325L855.5 327.5L849.812 328.822H840.969H843.062H842H833.5H840.608H840.969H814.469H794.744L792 327L790 325L787 322L785 319L783.5 316L782.469 313.5V264.322V206.322Z" fill="white"/>
<path d="M892 182.322H935.5L960.5 274V182.322H992L990.5 328.822H948L935.5 280L924.5 237.5V328.822H892V264.322V182.322Z" fill="white"/>
<path d="M892 182.322H935.5L960.5 274V182.322H992L990.5 328.822H948L935.5 280L924.5 237.5V328.822H892V264.322V182.322Z" fill="white"/>
<path d="M1291 182.322H1331L1360.5 328.822H1327L1322.5 296.322L1319 272.322L1311 214.822L1303.5 272.322H1321.5L1326 298.822H1299.5L1293.5 328.822H1259.5L1274.5 262.322L1291 182.322Z" fill="white"/>
<path d="M1291 182.322H1331L1360.5 328.822H1327L1322.5 296.322L1319 272.322L1311 214.822L1303.5 272.322H1321.5L1326 298.822H1299.5L1293.5 328.822H1259.5L1274.5 262.322L1291 182.322Z" fill="white"/>
<path d="M483 368.5C479.5 366 474.5 364 470 364.5L467.5 365L465 366L463 367C461.5 368 459.274 369.421 458.5 372C457 377 459 381.5 460.5 383C463 385.5 466 387 471 388L478 389C479.5 389.5 483.5 390.5 484 395.5C484 404 480.5 405.333 479 406.5L477.5 407.5L476.5 408L475 408.5H466.627L464.5 408L463 407.5L461 406.5L458.5 405L455.5 402.5" stroke="white" stroke-width="5"/>
<path d="M500 363.5V386.5M500 409.5V386.5M500 386.5H531.5M531.5 363.5V409.5" stroke="white" stroke-width="5"/>
<path d="M579 365H552M552 365H549.5H549H552ZM549 408H551.5M579 408H551.5M551.5 408V386.5M551.5 367.5V386.5M551.5 386.5H577" stroke="white" stroke-width="5"/>
<path d="M621.5 364.5H594.5M594.5 364.5H592H591.5H594.5ZM591.5 407.5H594M621.5 407.5H594M594 407.5V386M594 367V386M594 386H619.5" stroke="white" stroke-width="5"/>
<path d="M1138 182.5H1178L1183 184.5L1187 187.5L1190 190L1192.5 193L1194.5 195.5L1196 198.5L1197 201.5V234H1166.7V212H1138.5V238L1140 240.5L1142.5 242H1162L1167.5 243L1172.5 245L1177 247.5L1181 250.5L1185 253.5L1188.5 257L1191.5 261L1194 265.5L1196 271L1197 278V313.5L1193.5 318.5L1189.5 322.5L1184.5 326.5L1179.5 329H1140.5H1122.5L1119 327.5L1116 324.5L1113.5 322L1111 318.5L1108.5 315L1106.5 311V280H1139V302.211H1166.5V276.5L1165 273.5L1163.5 272L1162 271L1160 270H1154H1143L1136.5 269L1132.5 267.5L1128.5 266L1124 263L1121 260.5L1118.5 258L1115.5 255L1113 252.5L1111 249.5L1108.5 245.5L1107 242V200L1109.5 195L1113 190.5L1120 185.5L1127.5 182.5H1138Z" fill="white"/>
<rect x="1215.5" y="183.5" width="32" height="146" fill="white"/>
<path d="M1013.5 184.5H1094.5V211.5H1044V244.5H1086.5V269.5L1044 270V302H1094.5V330.5H1013.5V184.5Z" fill="white"/>
<path d="M777.5 364.5H750.5M750.5 364.5H748H747.5H750.5ZM747.5 407.5H750M777.5 407.5H750M750 407.5V386M750 367V386M750 386H775.5" stroke="white" stroke-width="5"/>
<path d="M629.5 365H646.5M663.5 365H646.5M646.5 365V410.5" stroke="white" stroke-width="5"/>
<path d="M785.5 365.5H802.5M819.5 365.5H802.5M802.5 365.5V411" stroke="white" stroke-width="5"/>
<path d="M690 410.5V362.5" stroke="white" stroke-width="5"/>
<path d="M689.5 364L710.5 401.5L732 364" stroke="white" stroke-width="5"/>
<path d="M732.5 410.5V362.5" stroke="white" stroke-width="5"/>
<path d="M874.5 362.5L874.5 406.073L874.5 409.5" stroke="white" stroke-width="5"/>
<path d="M872.5 407.5H899.5" stroke="white" stroke-width="5"/>
<path d="M956.5 367.5H928.5V389M928.5 410.5V389M928.5 389H953.287" stroke="white" stroke-width="8"/>
<path d="M961.5 408.5L967.636 395M1001 408.5L996.398 395M996.398 395L986 364.5H981.5L967.636 395M996.398 395H967.636" stroke="white" stroke-width="8"/>
<path d="M1171.5 409.5L1177.64 396M1211 409.5L1206.4 396M1206.4 396L1196 365.5H1191.5L1177.64 396M1206.4 396H1177.64" stroke="white" stroke-width="8"/>
<path d="M1215.5 367H1234.75M1254 367H1234.75M1234.75 367V411" stroke="white" stroke-width="8"/>
<path d="M1338.5 410.5V365.827H1340.47L1369.53 407.649H1371.5L1371.01 363.926V362.5" stroke="white" stroke-width="8"/>
<path d="M1338.5 404.5V411.5" stroke="white" stroke-width="8"/>
<path d="M1162.5 374.5V372L1160.5 370L1158 367.5L1155.5 366.5H1152.5H1144.5L1141.5 367.5L1139 369L1136.5 370.5L1134 374L1132 377.5L1131 380.5V395.5L1133.5 399.5L1136 402L1140 404.5L1142.5 406L1145.5 407H1153.5L1156.5 406L1160 404.5L1162 403L1162.5 401V399.5V398" stroke="white" stroke-width="8"/>
<path d="M1310.5 367.5H1296L1291.5 369.5M1291.5 369.5L1289.5 371L1287.5 373L1285.5 375.5L1284 377.5L1283.5 380V383V395L1285 397.5L1287.5 401L1290.5 403L1293 405L1296 405.5H1298H1309L1312 404.5L1315 403L1317 401L1319 398.5L1320.5 395L1321.5 393.5V381L1320.5 377.5L1319 375L1316.5 372L1314 369.5L1313 368.5L1312 367.5L1306 366.5H1296L1294 367.5L1291.5 369.5Z" stroke="white" stroke-width="8"/>
<path d="M1016.27 363.5L1016.71 405.466M1016.74 408.5L1016.71 405.466M1016.71 405.466H1037.01L1039.84 404.961L1041.73 404.455L1042.67 403.444L1044.56 400.916L1045.03 398.388L1045.5 394.343L1045.03 391.309L1043.61 389.792L1041.26 387.77L1038.9 386.253L1038.43 385.242M1038.43 385.242H1020.04M1038.43 385.242L1041.26 383.725L1042.2 382.713L1043.61 381.197L1044.56 378.669L1045.03 375.129L1044.56 371.084L1044.09 368.556L1042.67 366.534L1039.84 366.028L1037.01 365.522H1016.74H1012.5" stroke="white" stroke-width="8"/>
<path d="M1065.5 364V393M1065.5 410V393M1065.5 393H1083L1087 398L1094.5 408V409.5V410" stroke="white" stroke-width="8"/>
<path d="M1081.7 393.5L1084.05 393L1087.8 391L1089.68 388.5L1091.09 385.5L1092.03 383L1092.5 379.5V377.5L1091.56 374.5L1089.68 371L1087.33 369.5L1084.52 367.5H1068.08H1061.5" stroke="white" stroke-width="8"/>
<path d="M1112.5 410V364" stroke="white" stroke-width="8"/>
<path d="M1265.5 410.5V364.5" stroke="white" stroke-width="8"/>
<path d="M1016.5 362.5V409.5" stroke="white" stroke-width="8"/>
</g>
<defs>
<filter id="filter0_d_3_48" x="-4" y="0" width="1448" height="532" filterUnits="userSpaceOnUse" color-interpolation-filters="sRGB">
<feFlood flood-opacity="0" result="BackgroundImageFix"/>
<feColorMatrix in="SourceAlpha" type="matrix" values="0 0 0 0 0 0 0 0 0 0 0 0 0 0 0 0 0 0 127 0" result="hardAlpha"/>
<feOffset dy="4"/>
<feGaussianBlur stdDeviation="2"/>
<feComposite in2="hardAlpha" operator="out"/>
<feColorMatrix type="matrix" values="0 0 0 0 0 0 0 0 0 0 0 0 0 0 0 0 0 0 0.25 0"/>
<feBlend mode="normal" in2="BackgroundImageFix" result="effect1_dropShadow_3_48"/>
<feBlend mode="normal" in="SourceGraphic" in2="effect1_dropShadow_3_48" result="shape"/>
</filter>
<clipPath id="clip0_3_48">
<rect width="1440" height="524" fill="white"/>
</clipPath>
</defs>
</svg>
